# xmcd
#
# Track frame offsets: 
#        225
#        15284
#        31830
#        44750
#        63433
#        81220
#        95574
#        107904
#        125848
#        142009
#        153628
#
# Disc length: 2262 seconds
#
# Revision: 0
# Processed by: cddbd v1.5.2PL0 Copyright (c) Steve Scherf et al.
# Submitted via: ExactAudioCopy v1.3
#
DISCID=9808d30b
DTITLE=Rebel Syndicate - Welcome To The South
DYEAR=1900
DGENRE=
TTITLE0=Welcome To The South
TTITLE1=Slow Walkin', Sad Singin'
TTITLE2=Anything But Me
TTITLE3=Drive On
TTITLE4=This Town
TTITLE5=Beer Don't Bitch
TTITLE6=That Man Don't Live Here
TTITLE7=All But Gone
TTITLE8=Saving Grace
TTITLE9=Settle Down
TTITLE10=Bang, Bang!
EXTD=
EXTT0=
EXTT1=
EXTT2=
EXTT3=
EXTT4=
EXTT5=
EXTT6=
EXTT7=
EXTT8=
EXTT9=
EXTT10=
PLAYORDER=
